<?xml version="1.0" encoding="UTF-8"?>
<svg id="Layer_2" xmlns="http://www.w3.org/2000/svg" viewBox="0 0 2569.23 842.02">
  <defs>
    <style>
      .cls-1 {
        fill: #731fe1;
      }

      .cls-2 {
        fill: #d3d3d3;
      }

      .cls-3 {
        fill: #6713d5;
      }

      .cls-4 {
        fill: #7d29eb;
      }
    </style>
  </defs>
  <g id="text_x28_path_x29_">
    <g id="Gestão_que_Transforma">
      <path class="cls-2" d="M1328.97,579.55h24.48v18.21c0,5.75-.93,10.56-2.8,14.44s-4.6,6.81-8.22,8.79c-3.62,1.98-8.1,2.97-13.47,2.97s-10.01-.93-13.7-2.8c-3.69-1.86-6.47-4.62-8.33-8.28-1.86-3.65-2.8-8.18-2.8-13.58v-33.9c0-5.75.92-10.55,2.77-14.41,1.84-3.86,4.59-6.78,8.25-8.76,3.65-1.98,8.14-2.97,13.47-2.97,4.98,0,9.19.91,12.61,2.74s6.11,4.56,8.05,8.19c1.94,3.63,3.1,8.21,3.48,13.72h-8.9c-.53-5.63-2.06-9.85-4.59-12.67-2.53-2.82-6.08-4.22-10.64-4.22-5.33,0-9.37,1.55-12.13,4.65-2.76,3.1-4.14,7.68-4.14,13.73v33.9c0,5.56,1.4,9.76,4.19,12.61,2.8,2.85,6.93,4.28,12.41,4.28s9.23-1.51,11.93-4.54,4.05-7.58,4.05-13.67v-10.84h-15.98v-7.59Z"/>
      <path class="cls-2" d="M1408.75,596.96v-10.73c0-7.42-1.81-13.16-5.42-17.21-3.62-4.05-8.68-6.08-15.18-6.08s-12.02,2.12-15.73,6.34c-3.71,4.22-5.56,10.2-5.56,17.92v13.64c0,7.34,1.93,13.03,5.79,17.06,3.86,4.03,9.28,6.05,16.24,6.05,5.02,0,9.19-1.18,12.52-3.54,3.33-2.36,5.55-5.67,6.65-9.93l-7.64-2.51c-.73,2.59-2.11,4.62-4.14,6.11-2.04,1.48-4.5,2.22-7.39,2.22-4.45,0-7.92-1.33-10.39-3.99s-3.71-6.41-3.71-11.24v-4.11h33.96ZM1374.79,586.57c0-5.1,1.17-9.03,3.51-11.81,2.34-2.78,5.62-4.17,9.85-4.17,3.99,0,7.11,1.33,9.36,4,2.24,2.66,3.34,6.39,3.31,11.18v3.65h-26.03v-2.85Z"/>
      <path class="cls-2" d="M1439.4,623.95c-5.48,0-10.03-1.11-13.64-3.34-3.62-2.23-6.16-5.54-7.65-9.96l6.68-2.97c1.63,3.01,3.68,5.3,6.13,6.88,2.45,1.58,5.28,2.37,8.47,2.37,4.53,0,8-.91,10.42-2.74s3.62-4.47,3.62-7.93c0-2.51-.69-4.38-2.08-5.62-1.39-1.24-3.23-2.13-5.54-2.68s-4.78-1.02-7.45-1.4c-2.13-.34-4.29-.79-6.48-1.34s-4.19-1.37-6.02-2.45-3.29-2.6-4.39-4.54-1.65-4.55-1.65-7.82c0-5.67,1.72-10,5.16-12.98,3.44-2.99,8.46-4.48,15.04-4.48,4.83,0,8.86.98,12.1,2.94,3.23,1.96,5.61,4.9,7.13,8.82l-6.73,3.02c-1.41-2.43-3.2-4.35-5.36-5.74-2.17-1.39-4.6-2.08-7.3-2.08-4.03,0-7.12.87-9.25,2.6-2.13,1.73-3.2,4.29-3.2,7.68,0,2.44.68,4.24,2.05,5.42,1.37,1.18,3.19,2.04,5.45,2.57,2.26.53,4.69.99,7.28,1.37,2.21.34,4.42.76,6.65,1.26,2.23.5,4.26,1.3,6.11,2.42,1.84,1.12,3.32,2.72,4.42,4.79,1.1,2.07,1.65,4.82,1.65,8.25,0,5.75-1.85,10.13-5.54,13.15-3.69,3.02-9.06,4.54-16.09,4.54Z"/>
      <path class="cls-2" d="M1481.68,571.22v36.58c0,2.51.57,4.46,1.71,5.85,1.14,1.39,2.84,2.08,5.08,2.08h5.02v7.65h-6.16c-4.87,0-8.4-1.35-10.59-4.05-2.18-2.7-3.28-6.58-3.28-11.64v-36.47h-6.1v-7.36h6.1v-17.24h8.22v17.24h11.81v7.36h-11.81Z"/>
      <path class="cls-2" d="M1537.55,536.24v3.71c0,3.5-1.18,5.25-3.54,5.25-1.18,0-2.28-.36-3.31-1.06-1.02-.7-2.07-1.53-3.13-2.48-1.26-1.26-2.67-2.45-4.23-3.57-1.56-1.12-3.46-1.68-5.7-1.68-3.09,0-5.41.98-6.97,2.94-1.56,1.96-2.34,4.84-2.34,8.64v3.71h6.28v-3.48c0-3.2,1.09-4.79,3.25-4.79,1.26,0,2.43.38,3.51,1.14,1.09.76,2.2,1.62,3.34,2.57,1.33,1.1,2.75,2.17,4.25,3.22,1.51,1.05,3.27,1.57,5.28,1.57,3.16,0,5.55-1,7.16-3,1.62-1.99,2.43-4.93,2.43-8.81v-3.88h-6.28Z"/>
      <path class="cls-2" d="M1540.78,567.99c-3.56-3.4-8.59-5.1-15.1-5.1-4.98,0-9.14,1.12-12.47,3.36-3.33,2.25-5.56,5.37-6.7,9.36l6.96,2.11c1.06-2.43,2.66-4.31,4.79-5.64,2.13-1.34,4.63-2,7.48-2,3.99,0,7.08,1.09,9.24,3.28,2.17,2.19,3.26,5.26,3.26,9.22v5.19h-14.67c-6.2,0-10.94,1.59-14.21,4.76-3.27,3.18-4.91,7.83-4.91,13.96,0,5.7,1.6,10.04,4.8,13.01,3.19,2.97,7.82,4.45,13.86,4.45,2.93,0,5.5-.35,7.71-1.06,2.2-.7,4.04-1.74,5.51-3.13.75-.71,1.39-1.51,1.91-2.4v5.73h7.87v-40.74c0-6.17-1.78-10.95-5.33-14.36ZM1534.76,614.82c-2.32,1.48-5.69,2.23-10.1,2.23-4,0-7.06-.9-9.19-2.69-2.13-1.78-3.2-4.41-3.2-7.87,0-3.92.97-6.89,2.91-8.9,1.94-2.02,4.76-3.03,8.45-3.03h14.61v13.7c0,2.89-1.16,5.08-3.48,6.56Z"/>
      <path class="cls-2" d="M1580.53,623.95c-6.58,0-11.68-1.87-15.29-5.62-3.62-3.75-5.42-9.04-5.42-15.89v-18.26c0-6.77,1.81-12.01,5.42-15.72,3.61-3.71,8.71-5.56,15.29-5.56s11.68,1.85,15.29,5.56c3.61,3.71,5.42,8.95,5.42,15.72v18.43c0,6.77-1.81,12.02-5.42,15.75-3.62,3.73-8.71,5.59-15.29,5.59ZM1580.47,616.3c4,0,7.09-1.2,9.27-3.6,2.19-2.4,3.28-5.74,3.28-10.04v-18.55c0-4.3-1.09-7.63-3.28-9.99s-5.28-3.54-9.27-3.54-7.02,1.18-9.19,3.54c-2.17,2.36-3.25,5.69-3.25,9.99v18.55c0,4.3,1.08,7.65,3.25,10.04,2.17,2.4,5.23,3.6,9.19,3.6Z"/>
      <path class="cls-2" d="M1674.35,563.86v7.62c-1.62-2.61-3.61-4.61-5.97-6-2.95-1.73-6.21-2.59-9.78-2.59-5.52,0-9.79,1.85-12.82,5.56-3.02,3.71-4.53,8.95-4.53,15.72v19.01c0,6.62,1.54,11.75,4.62,15.41,3.08,3.65,7.42,5.47,13.01,5.47,3.81,0,7.13-.82,9.96-2.48,2.35-1.37,4.2-3.4,5.51-6.09v31.69h8.22v-83.32h-8.22ZM1674.29,603.63c0,2.44-.48,4.67-1.43,6.68-.95,2.02-2.34,3.63-4.16,4.82-1.83,1.2-4.05,1.8-6.68,1.8-3.96,0-7.04-1.21-9.24-3.62-2.21-2.42-3.32-5.8-3.32-10.13v-18.89c0-4.49,1.11-7.99,3.32-10.5,2.2-2.51,5.28-3.77,9.24-3.77,2.63,0,4.85.59,6.68,1.77,1.82,1.18,3.21,2.77,4.16,4.76.95,2,1.43,4.26,1.43,6.77l.06-.49v21.56l-.06-.76Z"/>
      <path class="cls-2" d="M1738.83,563.86v59.23h-8.16v-7.28c-1.21,2.16-2.9,3.97-5.08,5.43-2.7,1.81-6.18,2.71-10.44,2.71-5.55,0-9.85-1.78-12.9-5.33-3.04-3.56-4.56-8.57-4.56-15.04v-39.72h8.21v39.77c0,4,1.08,7.11,3.23,9.34,2.15,2.22,5.22,3.33,9.22,3.33s7.04-1.03,9.16-3.11c2.11-2.07,3.16-5.07,3.16-8.98v-40.35h8.16Z"/>
      <path class="cls-2" d="M1794.42,596.96v-10.73c0-7.42-1.81-13.16-5.42-17.21-3.62-4.05-8.68-6.08-15.18-6.08s-12.01,2.12-15.72,6.34c-3.71,4.22-5.57,10.2-5.57,17.92v13.64c0,7.34,1.93,13.03,5.79,17.06,3.87,4.03,9.28,6.05,16.24,6.05,5.02,0,9.2-1.18,12.53-3.54,3.32-2.36,5.54-5.67,6.65-9.93l-7.65-2.51c-.73,2.59-2.1,4.62-4.14,6.11-2.04,1.48-4.5,2.22-7.39,2.22-4.45,0-7.91-1.33-10.39-3.99-2.47-2.66-3.71-6.41-3.71-11.24v-4.11h33.96ZM1760.46,586.57c0-5.1,1.17-9.03,3.51-11.81,2.34-2.78,5.62-4.17,9.85-4.17,3.99,0,7.11,1.33,9.36,4,2.24,2.66,3.35,6.39,3.31,11.18v3.65h-26.03v-2.85Z"/>
      <polygon class="cls-2" points="1876.77 540.12 1876.77 547.76 1856.17 547.76 1856.17 623.09 1847.89 623.09 1847.89 547.76 1827.35 547.76 1827.35 540.12 1876.77 540.12"/>
      <path class="cls-2" d="M1912.95,565.23l-2.62,7.24c-.65-.64-1.45-1.13-2.4-1.45-.95-.32-2.05-.49-3.31-.49-5.25,0-9.37,1.34-12.35,4-2.99,2.66-4.56,6.35-4.71,11.07v37.49h-8.22v-59.23h8.22v8.54c1.97-2.73,4.41-4.91,7.3-6.55,3.5-1.97,7.36-2.96,11.59-2.96,1.33,0,2.54.2,3.65.6,1.1.4,2.05.98,2.85,1.74Z"/>
      <path class="cls-2" d="M1956.98,567.99c-3.56-3.4-8.59-5.1-15.09-5.1-4.99,0-9.14,1.12-12.47,3.36-3.33,2.25-5.57,5.37-6.71,9.36l6.96,2.11c1.07-2.43,2.67-4.31,4.8-5.64,2.13-1.34,4.62-2,7.47-2,4,0,7.08,1.09,9.25,3.28,2.17,2.19,3.25,5.26,3.25,9.22v5.19h-14.66c-6.21,0-10.94,1.59-14.22,4.76-3.27,3.18-4.9,7.83-4.9,13.96,0,5.7,1.59,10.04,4.79,13.01,3.2,2.97,7.82,4.45,13.87,4.45,2.93,0,5.5-.35,7.7-1.06,2.21-.7,4.04-1.74,5.51-3.13.75-.71,1.39-1.51,1.91-2.4v5.73h7.88v-40.74c0-6.17-1.78-10.95-5.34-14.36ZM1950.96,614.82c-2.32,1.48-5.69,2.23-10.1,2.23-4,0-7.06-.9-9.19-2.69-2.13-1.78-3.19-4.41-3.19-7.87,0-3.92.97-6.89,2.91-8.9,1.94-2.02,4.75-3.03,8.44-3.03h14.61v13.7c0,2.89-1.16,5.08-3.48,6.56Z"/>
      <path class="cls-2" d="M2019.33,584.23v38.86h-8.22v-38.92c0-4.41-1.1-7.78-3.31-10.1s-5.38-3.48-9.53-3.48-7.19,1.13-9.36,3.4c-2.17,2.26-3.25,5.56-3.25,9.9v39.2h-8.22v-59.23h8.22v7.79c1.6-2.74,3.58-4.79,5.91-6.17,2.94-1.73,6.3-2.59,10.07-2.59,5.78,0,10.17,1.82,13.18,5.48,3.01,3.65,4.51,8.94,4.51,15.86Z"/>
      <path class="cls-2" d="M2051.35,623.95c-5.48,0-10.03-1.11-13.64-3.34-3.62-2.23-6.16-5.54-7.65-9.96l6.68-2.97c1.63,3.01,3.68,5.3,6.13,6.88,2.45,1.58,5.28,2.37,8.47,2.37,4.53,0,8-.91,10.42-2.74s3.62-4.47,3.62-7.93c0-2.51-.69-4.38-2.08-5.62-1.39-1.24-3.23-2.13-5.54-2.68s-4.78-1.02-7.45-1.4c-2.13-.34-4.29-.79-6.48-1.34s-4.19-1.37-6.02-2.45-3.29-2.6-4.39-4.54-1.65-4.55-1.65-7.82c0-5.67,1.72-10,5.16-12.98,3.44-2.99,8.46-4.48,15.04-4.48,4.83,0,8.86.98,12.1,2.94,3.23,1.96,5.61,4.9,7.13,8.82l-6.73,3.02c-1.41-2.43-3.2-4.35-5.36-5.74-2.17-1.39-4.6-2.08-7.3-2.08-4.03,0-7.12.87-9.25,2.6-2.13,1.73-3.2,4.29-3.2,7.68,0,2.44.68,4.24,2.05,5.42,1.37,1.18,3.19,2.04,5.45,2.57,2.26.53,4.69.99,7.28,1.37,2.21.34,4.42.76,6.65,1.26,2.23.5,4.26,1.3,6.11,2.42,1.84,1.12,3.32,2.72,4.42,4.79,1.1,2.07,1.65,4.82,1.65,8.25,0,5.75-1.85,10.13-5.54,13.15-3.69,3.02-9.06,4.54-16.09,4.54Z"/>
      <path class="cls-2" d="M2093.8,555.7v8.16h13.99v7.07h-13.99v52.16h-8.21v-52.16h-6.28v-7.07h6.28v-8.05c0-5.1,1.2-8.99,3.62-11.67,2.42-2.68,5.94-4.02,10.59-4.02h7.99v7.64h-7.19c-2.21,0-3.9.68-5.06,2.03-1.16,1.35-1.74,3.32-1.74,5.91Z"/>
      <path class="cls-2" d="M2134.78,623.95c-6.58,0-11.68-1.87-15.29-5.62-3.62-3.75-5.42-9.04-5.42-15.89v-18.26c0-6.77,1.81-12.01,5.42-15.72,3.61-3.71,8.71-5.56,15.29-5.56s11.68,1.85,15.29,5.56c3.61,3.71,5.42,8.95,5.42,15.72v18.43c0,6.77-1.81,12.02-5.42,15.75-3.62,3.73-8.71,5.59-15.29,5.59ZM2134.73,616.3c4,0,7.09-1.2,9.27-3.6,2.19-2.4,3.28-5.74,3.28-10.04v-18.55c0-4.3-1.09-7.63-3.28-9.99s-5.28-3.54-9.27-3.54-7.02,1.18-9.19,3.54c-2.17,2.36-3.25,5.69-3.25,9.99v18.55c0,4.3,1.08,7.65,3.25,10.04,2.17,2.4,5.23,3.6,9.19,3.6Z"/>
      <path class="cls-2" d="M2203.09,565.23l-2.62,7.24c-.65-.64-1.45-1.13-2.4-1.45-.95-.32-2.06-.49-3.31-.49-5.25,0-9.37,1.34-12.36,4-2.98,2.66-4.55,6.35-4.7,11.07v37.49h-8.22v-59.23h8.22v8.54c1.97-2.73,4.41-4.91,7.3-6.55,3.5-1.97,7.36-2.96,11.59-2.96,1.33,0,2.54.2,3.65.6,1.1.4,2.05.98,2.85,1.74Z"/>
      <path class="cls-2" d="M2284.24,584.23v38.86h-8.21v-38.92c0-4.41-1.04-7.79-3.12-10.13-2.07-2.34-5.08-3.51-9.04-3.51-3.65,0-6.45,1.21-8.39,3.63-1.88,2.34-2.85,5.68-2.91,10.01v38.92h-8.28v-38.92c0-4.41-.95-7.79-2.85-10.13-1.9-2.34-4.7-3.51-8.39-3.51-3.96,0-6.97,1.16-9.04,3.46-2.08,2.3-3.11,5.64-3.11,10.01v39.09h-8.22v-59.23h8.22v7.75c1.52-2.7,3.39-4.73,5.59-6.1,2.81-1.75,6.05-2.62,9.7-2.62,5.37,0,9.44,1.81,12.21,5.45,1.07,1.39,1.93,3.03,2.59,4.92,1.35-2.85,3.08-5.14,5.17-6.86,2.86-2.34,6.28-3.51,10.28-3.51,5.82,0,10.24,1.82,13.27,5.48,3.02,3.65,4.53,8.94,4.53,15.86Z"/>
      <path class="cls-2" d="M2333.81,567.99c-3.56-3.4-8.59-5.1-15.1-5.1-4.98,0-9.14,1.12-12.47,3.36-3.33,2.25-5.56,5.37-6.7,9.36l6.96,2.11c1.06-2.43,2.66-4.31,4.79-5.64,2.13-1.34,4.63-2,7.48-2,3.99,0,7.08,1.09,9.24,3.28,2.17,2.19,3.26,5.26,3.26,9.22v5.19h-14.67c-6.2,0-10.94,1.59-14.21,4.76-3.27,3.18-4.91,7.83-4.91,13.96,0,5.7,1.6,10.04,4.8,13.01,3.19,2.97,7.82,4.45,13.86,4.45,2.93,0,5.5-.35,7.71-1.06,2.2-.7,4.04-1.74,5.51-3.13.75-.71,1.39-1.51,1.91-2.4v5.73h7.87v-40.74c0-6.17-1.78-10.95-5.33-14.36ZM2327.79,614.82c-2.32,1.48-5.69,2.23-10.1,2.23-4,0-7.06-.9-9.19-2.69-2.13-1.78-3.2-4.41-3.2-7.87,0-3.92.97-6.89,2.91-8.9,1.94-2.02,4.76-3.03,8.45-3.03h14.61v13.7c0,2.89-1.16,5.08-3.48,6.56Z"/>
    </g>
    <g id="HUB_SOLIDÁRIO">
      <polygon class="cls-3" points="1188.14 350.41 1188.14 500.99 1159.77 500.99 1159.77 439.99 1105.71 439.99 1105.71 500.99 1077.33 500.99 1077.33 350.41 1105.71 350.41 1105.71 412.65 1159.77 412.65 1159.77 350.41 1188.14 350.41"/>
      <path class="cls-3" d="M1274.1,502.54c-17.47,0-30.98-4.88-40.54-14.65-9.56-9.77-14.34-23.56-14.34-41.37v-96.1h28.38v96.83c0,8.63,2.31,15.33,6.94,20.09,4.62,4.76,11.15,7.15,19.57,7.15s15.07-2.38,19.73-7.15,6.99-11.46,6.99-20.09v-96.83h28.38v96.1c0,17.81-4.8,31.6-14.39,41.37-9.6,9.77-23.16,14.65-40.7,14.65Z"/>
      <path class="cls-3" d="M1459.42,435.28c-5.49-6.25-13.24-10.06-23.25-11.44,9.39-1.59,16.66-5.23,21.8-10.93,5.14-5.69,7.72-12.93,7.72-21.69,0-12.98-4.03-23.03-12.07-30.14-8.04-7.11-19.38-10.67-34.02-10.67h-61.41v150.58h63.17c14.71,0,26.1-3.57,34.18-10.72,8.08-7.14,12.11-17.24,12.11-30.29v-.31c0-10.01-2.74-18.14-8.23-24.39ZM1418.67,377.75c5.87,0,10.41,1.33,13.62,3.99,3.21,2.66,4.81,6.44,4.81,11.34,0,5.38-1.6,9.56-4.81,12.53-3.21,2.97-7.75,4.45-13.62,4.45h-32.1v-32.31h32.1ZM1439.07,455.73c0,5.67-1.78,10.07-5.33,13.21-3.56,3.14-8.58,4.71-15.07,4.71h-32.1v-36.25h32.1c6.49,0,11.51,1.57,15.07,4.72,3.55,3.14,5.33,7.57,5.33,13.3v.31Z"/>
      <path class="cls-3" d="M1599.39,502.54c-7.18,0-14.21-.73-21.08-2.17-6.87-1.45-13.31-3.57-19.31-6.37-6.01-2.8-11.43-6.16-16.26-10.1l13.15-23.4c5.8,4.76,12.5,8.44,20.09,11.03,7.59,2.59,15.4,3.88,23.41,3.88,9.25,0,16.43-1.57,21.54-4.71,5.11-3.14,7.66-7.58,7.66-13.31v-.1c0-4.35-1.28-7.68-3.83-9.99-2.55-2.31-5.92-4.02-10.1-5.13-4.18-1.1-8.72-2.04-13.62-2.8-5.87-.9-11.81-2.02-17.81-3.37-6.01-1.35-11.53-3.49-16.57-6.42-5.04-2.93-9.1-7.13-12.17-12.58-3.07-5.45-4.61-12.74-4.61-21.85v-.1c0-14.71,4.83-26.08,14.5-34.12,9.67-8.04,23.33-12.06,41.01-12.06,8.15,0,16.43,1.36,24.85,4.09,8.42,2.73,16.26,6.61,23.51,11.65l-12.01,24.03c-5.8-4.07-11.86-7.2-18.17-9.37-6.32-2.17-12.38-3.26-18.17-3.26-8.7,0-15.43,1.43-20.19,4.3-4.76,2.87-7.15,6.89-7.15,12.06v.1c0,4.83,1.41,8.49,4.25,10.98,2.83,2.49,6.52,4.33,11.08,5.54,4.56,1.21,9.46,2.33,14.71,3.37,5.8,1.1,11.56,2.47,17.29,4.09,5.73,1.62,10.98,3.95,15.74,6.99,4.76,3.04,8.56,7.21,11.39,12.53,2.83,5.32,4.25,12.22,4.25,20.71v.21c0,14.5-5.01,25.74-15.02,33.71-10.01,7.97-24.13,11.96-42.36,11.96Z"/>
      <path class="cls-3" d="M1730.39,502.54c-11.05,0-20.7-2.29-28.95-6.89-8.25-4.59-14.65-11.06-19.21-19.42-4.56-8.35-6.83-18.09-6.83-29.2v-42.67c0-11.18,2.28-20.94,6.83-29.26,4.56-8.32,10.96-14.77,19.21-19.37,8.25-4.59,17.9-6.89,28.95-6.89s20.69,2.3,28.95,6.89c8.25,4.59,14.65,11.05,19.21,19.37,4.56,8.32,6.83,18.07,6.83,29.26v42.67c0,11.12-2.28,20.85-6.83,29.2-4.56,8.35-10.96,14.83-19.21,19.42-8.25,4.59-17.9,6.89-28.95,6.89ZM1730.39,474.17c7.73,0,13.93-2.42,18.59-7.25,4.66-4.83,6.99-11.22,6.99-19.16v-44.12c0-8.01-2.33-14.41-6.99-19.21-4.66-4.8-10.86-7.2-18.59-7.2s-13.93,2.4-18.59,7.2c-4.66,4.8-6.99,11.2-6.99,19.21v44.12c0,7.94,2.33,14.33,6.99,19.16,4.66,4.83,10.86,7.25,18.59,7.25Z"/>
      <polygon class="cls-3" points="1914.21 473.65 1914.21 500.99 1813.34 500.99 1813.34 350.41 1841.72 350.41 1841.72 473.65 1914.21 473.65"/>
      <path class="cls-3" d="M1962.27,350.41v150.58h-29.41v-150.58h29.41Z"/>
      <path class="cls-3" d="M2087,364.55c-10.32-9.43-24.94-14.14-43.86-14.14h-49.81v150.58h49.71c13.18,0,24.18-2.26,32.98-6.78,8.8-4.53,15.41-10.84,19.83-18.96,4.42-8.11,6.63-17.51,6.63-28.22v-42.66c0-17.12-5.16-30.4-15.48-39.82ZM2073.07,447.86c0,8.15-2.55,14.48-7.66,19.01-5.11,4.52-12.33,6.78-21.65,6.78h-22.06v-95.9h22.06c9.32,0,16.54,2.25,21.65,6.73,5.11,4.49,7.66,10.84,7.66,19.06v44.32Z"/>
      <path class="cls-3" d="M2196.2,298.32l-28.58,25.37,16.88,17.4,30.55-23.4-18.85-19.37Z"/>
      <path class="cls-3" d="M2189.47,350.41h-18.02l-57.58,150.58h30.55l8.46-24.13h55.16l8.46,24.13h30.55l-57.58-150.58ZM2162.46,449.52l18-51.37,18,51.37h-36Z"/>
      <path class="cls-3" d="M2343.63,438.94c3.55-.93,6.84-2.31,9.88-4.13,6.22-3.72,11.07-8.97,14.55-15.74,3.49-6.76,5.23-14.67,5.23-23.71s-1.72-16.95-5.18-23.72c-3.45-6.76-8.3-12.01-14.54-15.74-6.25-3.73-13.56-5.59-21.91-5.59h-65.97v150.68h28.38v-60.58h17.21l33.95,60.58h34.38l-35.98-62.05ZM2294.07,377.65h35.31c4.49,0,8.06,1.62,10.72,4.87,2.66,3.24,3.99,7.52,3.99,12.84-.07,5.32-1.43,9.6-4.09,12.84-2.66,3.25-6.2,4.87-10.62,4.87h-35.31v-35.42Z"/>
      <path class="cls-3" d="M2431.29,350.41v150.58h-29.41v-150.58h29.41Z"/>
      <path class="cls-3" d="M2514.24,502.54c-11.05,0-20.7-2.29-28.95-6.89-8.25-4.59-14.65-11.06-19.21-19.42-4.56-8.35-6.83-18.09-6.83-29.2v-42.67c0-11.18,2.28-20.94,6.83-29.26,4.56-8.32,10.96-14.77,19.21-19.37,8.25-4.59,17.9-6.89,28.95-6.89s20.69,2.3,28.95,6.89c8.25,4.59,14.65,11.05,19.21,19.37,4.56,8.32,6.83,18.07,6.83,29.26v42.67c0,11.12-2.28,20.85-6.83,29.2-4.56,8.35-10.96,14.83-19.21,19.42-8.25,4.59-17.9,6.89-28.95,6.89ZM2514.24,474.17c7.73,0,13.93-2.42,18.59-7.25,4.66-4.83,6.99-11.22,6.99-19.16v-44.12c0-8.01-2.33-14.41-6.99-19.21-4.66-4.8-10.86-7.2-18.59-7.2s-13.93,2.4-18.59,7.2c-4.66,4.8-6.99,11.2-6.99,19.21v44.12c0,7.94,2.33,14.33,6.99,19.16,4.66,4.83,10.86,7.25,18.59,7.25Z"/>
    </g>
    <g id="HUBS">
      <path class="cls-4" d="M466.52,135.29s-.03.02-.05.03l-313.66,236.52L0,231.3,335.55,0l130.97,135.29Z"/>
      <path class="cls-3" d="M466.48,352.51l-33.01,26.61c33.81,21.54,65.67,49.78,93.3,84.2,24.06,29.98,42.86,62.06,56.38,94.72l108.65-98.98-225.32-106.55Z"/>
      <path class="cls-4" d="M865.03,301.3c-11.82-27.92-27.92-55.13-48.34-80.51-94.57-117.53-247.42-153.47-350.04-85.55l-.18,217.26,225.39,106.49,173.16-157.69Z"/>
      <path class="cls-4" d="M1049.57,244.27l-326.54,292.78-138.85,23.49c-.34-.83-.68-1.66-1.03-2.5l281.89-256.74,184.53-57.03Z"/>
      <path class="cls-1" d="M814.52,589.44l.03.07-268.44,252.51v-.02c62.39-59.14,78.19-156.59,48.15-253.25-2.93-9.43-6.29-18.84-10.09-28.21l138.85-23.49,164.93-147.87c8.11,77.98-16.48,152.58-73.43,200.26Z"/>
      <path class="cls-1" d="M433.47,379.11s0,0,0,0l33.01-26.61.04-217.22s0,0,0,0h0s-308.94,232.96-308.94,232.96c75.38-54.68,182.54-48.61,275.89,10.86Z"/>
      <ellipse class="cls-4" cx="341.79" cy="611.82" rx="71.07" ry="132.31" transform="translate(-307.75 348.69) rotate(-38.76)"/>
    </g>
  </g>
</svg>