<?xml version="1.0" encoding="UTF-8"?>
<svg id="Layer_2" xmlns="http://www.w3.org/2000/svg" viewBox="0 0 340.37 398.28">
  <defs>
    <style>
      .cls-1 {
        fill: #5703c5;
      }

      .cls-2 {
        fill: #44019d;
      }

      .cls-3 {
        fill: #7d29eb;
      }

      .cls-4 {
        fill: #161616;
      }
    </style>
  </defs>
  <g id="purple_x5F_Bear">
    <path id="body" class="cls-1" d="M323.47,93.32c-2.86,3.09-6.01,5.87-9.35,8.3,1.56,6.7,2.37,13.62,2.37,20.7,0,34.34-19.12,64.93-48.88,84.65,24.51,27.95,39.59,66.03,39.59,108,0,3.73-.13,7.43-.36,11.1-1.69,26.45-9.38,51.07-21.58,72.21-.05-.06-.1-.12-.14-.18-2.51-3.12-5.07-6.18-7.64-9.2,2.8-1.42,5.29-3.31,7.37-5.7,12.58-14.46,5.32-41.38-16.23-60.13s-49.22-22.22-61.8-7.75c-1.59,1.82-2.86,3.84-3.82,6.01-3.7-2.55-7.43-5.04-11.18-7.43h-.01c-29.16-18.59-59.68-31.95-90.15-39.89.86-2.21,1.39-4.54,1.57-6.94,1.37-19.13-20.61-36.29-49.1-38.33-1.5-.11-2.98-.16-4.45-.19,9.84-16.19,22.36-30.24,36.88-41.34-2.3-2.56-4.46-5.22-6.49-7.96-12.25-16.51-19.36-36.02-19.36-56.93,0-6.52.69-12.9,2.01-19.1-21.54-15.81-29.69-44.56-18-68.7C57.95,7.21,91.58-3.83,119.83,9.85c7.1,3.44,13.19,8.12,18.11,13.62,15.53-5.65,32.66-8.78,50.66-8.78s34.4,3,49.68,8.43c.81-1.02,1.65-2.02,2.53-3.01,20.17-22.75,61.79-27.82,84.51-6.78,19.53,18.09,21.21,55.07-1.85,79.99Z"/>
    <path id="L_x5F_pat" class="cls-2" d="M103.23,267.07c-1.38,19.12-25.58,32.97-54.07,30.92-7.91-.57-15.32-2.3-21.86-4.92C10.27,286.26-.93,273.47.06,259.66c1.3-18.12,23.1-31.49,49.62-31.11,1.47.03,2.95.08,4.45.19,28.49,2.04,50.47,19.2,49.1,38.33Z"/>
    <ellipse id="R_x5F_pat" class="cls-2" cx="245.83" cy="349.26" rx="34.72" ry="51.72" transform="translate(-179.02 305.49) rotate(-48.98)"/>
    <path id="mouth" class="cls-3" d="M220.05,157.11c-1.47,17.94-22.5,31.56-47.77,30.27s-45.24-16.92-44.1-34.88c1.01-15.86,25.03-33.46,46.47-32.94,22.52.54,46.66,22.01,45.39,37.55Z"/>
    <ellipse id="nose" class="cls-4" cx="173.54" cy="138.68" rx="10.79" ry="14.46" transform="translate(26.83 305.48) rotate(-87.29)"/>
    <ellipse id="R_x5F_eye" class="cls-4" cx="128.68" cy="101.55" rx="14.46" ry="10.79" transform="translate(21.17 225.3) rotate(-87.29)"/>
    <ellipse id="L_x5F_eye" class="cls-4" cx="233.57" cy="106.95" rx="14.46" ry="10.79" transform="translate(115.72 335.21) rotate(-87.29)"/>
  </g>
</svg>