<?xml version="1.0" encoding="UTF-8"?>
<svg id="Layer_2" xmlns="http://www.w3.org/2000/svg" viewBox="0 0 1049.57 842.02">
  <defs>
    <style>
      .cls-1 {
        fill: #0051a8;
      }

      .cls-2 {
        fill: #005fc2;
      }

      .cls-3 {
        fill: #0082fd;
      }

      .cls-4 {
        fill: #006dd6;
      }
    </style>
  </defs>
  <g id="Layer_2-2" data-name="Layer_2">
    <path class="cls-4" d="M466.52,135.29s-.03.02-.05.03l-313.66,236.52L0,231.3,335.55,0l130.97,135.29Z"/>
    <path class="cls-1" d="M466.48,352.51l-33.01,26.61c33.81,21.54,65.67,49.78,93.3,84.2,24.06,29.98,42.86,62.06,56.38,94.72l108.65-98.98-225.32-106.55Z"/>
    <path class="cls-4" d="M865.03,301.3c-11.82-27.92-27.92-55.13-48.34-80.51-94.57-117.53-247.42-153.47-350.04-85.55l-.18,217.26,225.39,106.49,173.16-157.69Z"/>
    <path class="cls-3" d="M1049.57,244.27l-326.54,292.78-138.85,23.49c-.34-.83-.68-1.66-1.03-2.5l281.89-256.74,184.53-57.03Z"/>
    <path class="cls-4" d="M814.52,589.44l.03.07-268.44,252.51v-.02c62.39-59.14,78.19-156.59,48.15-253.25-2.93-9.43-6.29-18.84-10.09-28.21l138.85-23.49,164.93-147.87c8.11,77.98-16.48,152.58-73.43,200.26Z"/>
    <path class="cls-2" d="M433.47,379.11s0,0,0,0l33.01-26.61.04-217.22s0,0,0,0h0s-308.94,232.96-308.94,232.96c75.38-54.68,182.54-48.61,275.89,10.86Z"/>
    <ellipse class="cls-4" cx="341.79" cy="611.82" rx="71.07" ry="132.31" transform="translate(-307.75 348.69) rotate(-38.76)"/>
  </g>
</svg>