<?xml version="1.0" encoding="UTF-8"?>
<svg id="Layer_2" xmlns="http://www.w3.org/2000/svg" viewBox="0 0 1049.57 842.02">
  <defs>
    <style>
      .cls-1 {
        fill: #5703c5;
      }

      .cls-2 {
        fill: #731fe1;
      }

      .cls-3 {
        fill: #44019d;
      }

      .cls-4 {
        fill: #6713d5;
      }

      .cls-5 {
        fill: #7d29eb;
      }

      .cls-6 {
        fill: #161616;
      }
    </style>
  </defs>
  <g id="HUBS">
    <path class="cls-5" d="M466.52,135.29s-.03.02-.05.03l-313.66,236.52L0,231.3,335.55,0l130.97,135.29Z"/>
    <path class="cls-4" d="M466.48,352.51l-33.01,26.61c33.81,21.54,65.67,49.78,93.3,84.2,24.06,29.98,42.86,62.06,56.38,94.72l108.65-98.98-225.32-106.55Z"/>
    <path class="cls-5" d="M865.03,301.3c-11.82-27.92-27.92-55.13-48.34-80.51-94.57-117.53-247.42-153.47-350.04-85.55l-.18,217.26,225.39,106.49,173.16-157.69Z"/>
    <path class="cls-5" d="M1049.57,244.27l-326.54,292.78-138.85,23.49c-.34-.83-.68-1.66-1.03-2.5l281.89-256.74,184.53-57.03Z"/>
    <path class="cls-2" d="M814.52,589.44l.03.07-268.44,252.51v-.02c62.39-59.14,78.19-156.59,48.15-253.25-2.93-9.43-6.29-18.84-10.09-28.21l138.85-23.49,164.93-147.87c8.11,77.98-16.48,152.58-73.43,200.26Z"/>
    <path class="cls-2" d="M433.47,379.11s0,0,0,0l33.01-26.61.04-217.22s0,0,0,0h0s-308.94,232.96-308.94,232.96c75.38-54.68,182.54-48.61,275.89,10.86Z"/>
    <ellipse class="cls-5" cx="341.79" cy="611.82" rx="71.07" ry="132.31" transform="translate(-307.75 348.69) rotate(-38.76)"/>
    <g id="purple_x5F_Bear">
      <path id="body" class="cls-1" d="M565.23,158.51c-2.86,3.09-6.01,5.87-9.35,8.3,1.56,6.7,2.37,13.62,2.37,20.7,0,34.34-19.12,64.93-48.88,84.65,24.51,27.95,39.59,66.03,39.59,108,0,3.73-.13,7.43-.36,11.1-1.69,26.45-9.38,51.07-21.58,72.21-.05-.06-.1-.12-.14-.18-2.51-3.12-5.07-6.18-7.64-9.2,2.8-1.42,5.29-3.31,7.37-5.7,12.58-14.46,5.32-41.38-16.23-60.13s-49.22-22.22-61.8-7.75c-1.59,1.82-2.86,3.84-3.82,6.01-3.7-2.55-7.43-5.04-11.18-7.43h-.01c-29.16-18.59-59.68-31.95-90.15-39.89.86-2.21,1.39-4.54,1.57-6.94,1.37-19.13-20.61-36.29-49.1-38.33-1.5-.11-2.98-.16-4.45-.19,9.84-16.19,22.36-30.24,36.88-41.34-2.3-2.56-4.46-5.22-6.49-7.96-12.25-16.51-19.36-36.02-19.36-56.93,0-6.52.69-12.9,2.01-19.1-21.54-15.81-29.69-44.56-18-68.7,13.23-27.31,46.86-38.35,75.11-24.67,7.1,3.44,13.19,8.12,18.11,13.62,15.53-5.65,32.66-8.78,50.66-8.78s34.4,3,49.68,8.43c.81-1.02,1.65-2.02,2.53-3.01,20.17-22.75,61.79-27.82,84.51-6.78,19.53,18.09,21.21,55.07-1.85,79.99Z"/>
      <path id="L_x5F_pat" class="cls-3" d="M344.99,332.26c-1.38,19.12-25.58,32.97-54.07,30.92-7.91-.57-15.32-2.3-21.86-4.92-17.03-6.81-28.23-19.6-27.24-33.41,1.3-18.12,23.1-31.49,49.62-31.11,1.47.03,2.95.08,4.45.19,28.49,2.04,50.47,19.2,49.1,38.33Z"/>
      <ellipse id="R_x5F_pat" class="cls-3" cx="487.59" cy="414.45" rx="34.72" ry="51.72" transform="translate(-145.12 510.28) rotate(-48.98)"/>
      <path id="mouth" class="cls-5" d="M461.81,222.29c-1.47,17.94-22.5,31.56-47.77,30.27s-45.24-16.92-44.1-34.88c1.01-15.86,25.03-33.46,46.47-32.94,22.52.54,46.66,22.01,45.39,37.55Z"/>
      <ellipse id="nose" class="cls-6" cx="415.3" cy="203.86" rx="10.79" ry="14.46" transform="translate(192.06 609.08) rotate(-87.29)"/>
      <ellipse id="R_x5F_eye" class="cls-6" cx="370.44" cy="166.74" rx="14.46" ry="10.79" transform="translate(186.4 528.9) rotate(-87.29)"/>
      <ellipse id="L_x5F_eye" class="cls-6" cx="475.32" cy="172.14" rx="14.46" ry="10.79" transform="translate(280.94 638.81) rotate(-87.29)"/>
    </g>
  </g>
</svg>