<?xml version="1.0" encoding="UTF-8"?>
<svg id="Layer_2" xmlns="http://www.w3.org/2000/svg" viewBox="0 0 1049.57 842.02">
  <defs>
    <style>
      .cls-1 {
        fill: #5703c5;
      }

      .cls-2 {
        fill: #731fe1;
      }

      .cls-3 {
        fill: #44019d;
      }

      .cls-4 {
        fill: #6713d5;
      }

      .cls-5 {
        fill: #7d29eb;
      }

      .cls-6 {
        fill: #161616;
      }
    </style>
  </defs>
  <g id="HUBS">
    <path class="cls-5" d="M466.52,135.29s-.03.02-.05.03l-313.66,236.52L0,231.3,335.55,0l130.97,135.29Z"/>
    <path class="cls-4" d="M466.48,352.51l-33.01,26.61c33.81,21.54,65.67,49.78,93.3,84.2,24.06,29.98,42.86,62.06,56.38,94.72l108.65-98.98-225.32-106.55Z"/>
    <path class="cls-5" d="M865.03,301.3c-11.82-27.92-27.92-55.13-48.34-80.51-94.57-117.53-247.42-153.47-350.04-85.55l-.18,217.26,225.39,106.49,173.16-157.69Z"/>
    <path class="cls-5" d="M1049.57,244.27l-326.54,292.78-138.85,23.49c-.34-.83-.68-1.66-1.03-2.5l281.89-256.74,184.53-57.03Z"/>
    <path class="cls-2" d="M814.52,589.44l.03.07-268.44,252.51v-.02c62.39-59.14,78.19-156.59,48.15-253.25-2.93-9.43-6.29-18.84-10.09-28.21l138.85-23.49,164.93-147.87c8.11,77.98-16.48,152.58-73.43,200.26Z"/>
    <path class="cls-2" d="M433.47,379.11s0,0,0,0l33.01-26.61.04-217.22s0,0,0,0h0s-308.94,232.96-308.94,232.96c75.38-54.68,182.54-48.61,275.89,10.86Z"/>
    <ellipse class="cls-5" cx="341.79" cy="611.82" rx="71.07" ry="132.31" transform="translate(-307.75 348.69) rotate(-38.76)"/>
    <g id="purple_x5F_Bear">
      <path id="body" class="cls-1" d="M565.23,158.51c-2.86,3.09-6.01,5.87-9.35,8.3,1.56,6.7,2.37,13.62,2.37,20.7,0,34.34-19.12,64.93-48.88,84.65,24.51,27.95,39.59,66.03,39.59,108,0,3.73-.13,7.43-.36,11.1-1.69,26.45-9.38,51.07-21.58,72.21-.05-.06-.1-.12-.14-.18-2.51-3.12-5.07-6.18-7.64-9.2,2.8-1.42,5.29-3.31,7.37-5.7,12.58-14.46,5.32-41.38-16.23-60.13s-49.22-22.22-61.8-7.75c-1.59,1.82-2.86,3.84-3.82,6.01-3.7-2.55-7.43-5.04-11.18-7.43h-.01c-29.16-18.59-59.68-31.95-90.15-39.89.86-2.21,1.39-4.54,1.57-6.94,1.37-19.13-20.61-36.29-49.1-38.33-1.5-.11-2.98-.16-4.45-.19,9.84-16.19,22.36-30.24,36.88-41.34-2.3-2.56-4.46-5.22-6.49-7.96-12.25-16.51-19.36-36.02-19.36-56.93,0-6.52.69-12.9,2.01-19.1-21.54-15.81-29.69-44.56-18-68.7,13.23-27.31,46.86-38.35,75.11-24.67,7.1,3.44,13.19,8.12,18.11,13.62,15.53-5.65,32.66-8.78,50.66-8.78s34.4,3,49.68,8.43c.81-1.02,1.65-2.02,2.53-3.01,20.17-22.75,61.79-27.82,84.51-6.78,19.53,18.09,21.21,55.07-1.85,79.99Z"/>
      <path id="L_x5F_pat" class="cls-3" d="M344.99,332.26c-1.38,19.12-25.58,32.97-54.07,30.92-7.91-.57-15.32-2.3-21.86-4.92-17.03-6.81-28.23-19.6-27.24-33.41,1.3-18.12,23.1-31.49,49.62-31.11,1.47.03,2.95.08,4.45.19,28.49,2.04,50.47,19.2,49.1,38.33Z"/>
      <ellipse id="R_x5F_pat" class="cls-3" cx="487.59" cy="414.45" rx="34.72" ry="51.72" transform="translate(-145.12 510.28) rotate(-48.98)"/>
      <path id="mouth" class="cls-5" d="M461.81,222.29c-1.47,17.94-22.5,31.56-47.77,30.27s-45.24-16.92-44.1-34.88c1.01-15.86,25.03-33.46,46.47-32.94,22.52.54,46.66,22.01,45.39,37.55Z"/>
      <ellipse id="nose" class="cls-6" cx="415.3" cy="203.86" rx="10.79" ry="14.46" transform="translate(192.06 609.08) rotate(-87.29)"/>
      <ellipse id="R_x5F_eye" class="cls-6" cx="370.44" cy="166.74" rx="14.46" ry="10.79" transform="translate(186.4 528.9) rotate(-87.29)"/>
      <ellipse id="L_x5F_eye" class="cls-6" cx="475.32" cy="172.14" rx="14.46" ry="10.79" transform="translate(280.94 638.81) rotate(-87.29)"/>
      <path id="outline_x5F_Bear_x28_path_x29_" class="cls-6" d="M530.19,65.19c13.65,0,27.05,4.22,36.89,13.33,19.53,18.09,21.21,55.07-1.85,79.99-2.86,3.09-6.01,5.87-9.35,8.3,1.56,6.7,2.37,13.62,2.37,20.7,0,34.34-19.12,64.93-48.88,84.65,24.51,27.95,39.59,66.03,39.59,108,0,3.73-.13,7.43-.36,11.1-1.69,26.45-9.38,51.07-21.58,72.21-.05-.06-.1-.12-.14-.18-2.51-3.12-5.07-6.18-7.64-9.2-4.27,2.17-9.26,3.23-14.66,3.23-12.53,0-27.2-5.74-39.77-16.68-18.84-16.39-26.76-39.02-20.05-54.12-3.7-2.55-7.43-5.04-11.18-7.43h0c-29.16-18.59-59.68-31.95-90.15-39.89-5.51,14.25-24.42,24.18-46.93,24.18-1.83,0-3.69-.07-5.57-.2-7.91-.57-15.32-2.3-21.86-4.92-17.03-6.81-28.23-19.6-27.24-33.41,1.28-17.87,22.5-31.12,48.52-31.12.37,0,.73,0,1.1,0,9.84-16.19,22.36-30.24,36.88-41.34-2.3-2.56-4.46-5.22-6.49-7.96-12.25-16.51-19.36-36.02-19.36-56.93,0-6.52.69-12.9,2.01-19.1-21.54-15.81-29.69-44.56-18-68.7,9.38-19.36,29-30.54,49.7-30.54,8.5,0,17.19,1.89,25.41,5.87,7.1,3.44,13.19,8.12,18.11,13.62,15.53-5.65,32.66-8.78,50.66-8.78s34.4,3,49.68,8.43c.81-1.02,1.65-2.02,2.53-3.01,11.43-12.9,29.75-20.11,47.62-20.11M530.19,58.19c-20.38,0-39.92,8.2-52.42,21.97-15.13-4.83-31.06-7.28-47.42-7.28s-33.21,2.59-48.72,7.7c-4.97-4.8-10.67-8.78-16.99-11.84-9-4.36-18.58-6.57-28.46-6.57-11.6,0-22.91,3.12-32.7,9.01-10.12,6.09-18.17,14.9-23.3,25.48-12.32,25.44-5.27,56.12,16.63,74.62-.89,5.36-1.34,10.8-1.34,16.23,0,21.69,7.17,42.82,20.74,61.1.7.95,1.42,1.89,2.15,2.82-11.85,10.01-22.19,21.86-30.83,35.35-28.77.97-51.2,16.8-52.69,37.57-.61,8.51,2.32,16.92,8.46,24.31,5.58,6.71,13.59,12.28,23.16,16.1,7.42,2.97,15.48,4.79,23.96,5.4,2.02.15,4.06.22,6.07.22,22.41,0,41.81-9,50.58-22.94,28.37,8,56.18,20.62,82.74,37.55.08.05.15.1.23.14,2.09,1.33,4.21,2.72,6.4,4.19-4.34,17.7,4.83,40.11,23.78,56.59,13.44,11.69,29.61,18.4,44.37,18.4,4.49,0,8.7-.62,12.57-1.85,1.51,1.8,2.87,3.47,4.17,5.07.14.18.25.32.32.4,1.34,1.61,3.31,2.52,5.38,2.52.2,0,.4,0,.6-.03,2.28-.2,4.32-1.49,5.47-3.47,13.02-22.56,20.8-48.58,22.5-75.26.25-3.97.37-7.85.37-11.55,0-39.53-12.86-77.09-36.36-106.66,12.93-9.72,23.69-21.57,31.39-34.62,9.46-16.03,14.25-33.31,14.25-51.36,0-6-.55-11.99-1.63-17.86,2.39-1.99,4.65-4.12,6.75-6.39,12.07-13.05,18.73-29.84,18.76-47.3.02-16.86-6.28-32.38-17.29-42.58-10.58-9.8-25.37-15.19-41.64-15.19h0Z"/>
    </g>
  </g>
</svg>